<svg height="118.98pt" viewBox="1 0 511.99988 511" width="118.98pt" xmlns="http://www.w3.org/2000/svg"><path d="m498.839844 372.367188-358.707032-358.742188c-17.5-17.5-45.980468-17.5-63.488281 0l-63.484375 63.492188c-17.542968 17.542968-17.550781 45.941406 0 63.492187 11.609375 11.613281 351.136719 351.167969 358.707032 358.738281 17.480468 17.484375 45.9375 17.53125 63.488281 0l63.484375-63.488281c17.542968-17.546875 17.546875-45.945313 0-63.492187zm0 0" fill="#d6f3fe"/><path d="m44.886719 45.378906-31.726563 31.738282c-17.539062 17.539062-17.550781 45.9375 0 63.488281 3.277344 3.277343 32.757813 32.765625 73.535156 73.546875l21.171876 21.167968v.011719c52.304687 52.304688 117.015624 117.023438 169.292968 169.292969v.007812c2.339844 2.339844 4.648438 4.648438 6.9375 6.941407 2.390625 2.378906 4.742188 4.738281 7.058594 7.058593l7.171875 7.167969c41.566406 41.578125 71.355469 71.367188 73.535156 73.546875 17.480469 17.480469 45.941407 17.53125 63.488281 0l31.757813-31.746094zm0 0" fill="#bdecfc"/><path d="m318.589844 66.671875-59.039063 58.902344-215.625 215.097656c-.511719.511719-.980469 1.058594-1.398437 1.628906l127.132812 127.140625c.777344-.527344 1.515625-1.136718 2.183594-1.804687l273.835938-273.859375zm0 0" fill="#7280f8"/><path d="m382.203125 130.292969-58.976563 58.96875-216.871093 216.871093 63.308593 63.308594c.097657-.070312.199219-.140625.289063-.210937.238281-.167969.46875-.351563.699219-.53125.230468-.1875.449218-.378907.671875-.570313l.007812-.007812c.171875-.160156.339844-.320313.511719-.480469l214.871094-214.890625 58.96875-58.976562zm0 0" fill="#434af2"/><path d="m40.023438 347.4375-38.40625 145.160156c-1.367188 5.167969.125 10.675782 3.914062 14.445313 2.84375 2.820312 6.648438 4.347656 10.550781 4.347656 1.304688 0 2.621094-.167969 3.914063-.519531l145.183594-39.375c2.292968-.625 4.394531-1.785156 6.148437-3.378906l-127.417969-127.433594c-1.871094 1.871094-3.210937 4.199218-3.886718 6.753906zm0 0" fill="#f2d2ad"/><path d="m171.332031 468.121094-.007812.011718c-.222657.1875-.441407.378907-.671875.570313-.230469.179687-.460938.359375-.699219.527344-.101563.070312-.199219.140625-.300781.203125-1.359375.929687-2.867188 1.628906-4.46875 2.058594l-145.183594 39.378906c-1.300781.347656-2.609375.519531-3.921875.519531-3.898437 0-7.707031-1.519531-10.546875-4.351563-.011719-.007812-.03125-.027343-.042969-.039062l102.367188-102.367188zm0 0" fill="#eebf92"/><path d="m87.410156 130.210938-42.328125 42.324218-21.160156-21.160156 42.328125-42.332031c5.84375-5.835938 15.3125-5.835938 21.160156 0 5.84375 5.84375 5.84375 15.324219 0 21.167969zm0 0" fill="#4f84cf"/><path d="m171.355469 171.835938-63.488281 63.492187-21.167969-21.171875 63.488281-63.492188c5.84375-5.835937 15.320312-5.835937 21.167969 0 5.835937 5.847657 5.835937 15.324219 0 21.171876zm0 0" fill="#66a9df"/><path d="m361.8125 362.308594-63.484375 63.492187-21.171875-21.167969 63.488281-63.492187c5.84375-5.847656 15.320313-5.847656 21.167969 0 5.835938 5.84375 5.835938 15.324219 0 21.167969zm0 0" fill="#66a9df"/><g fill="#4f84cf"><path d="m86.710938 214.152344 63.488281-63.480469 21.171875 21.171875-63.492188 63.480469zm0 0"/><path d="m361.816406 362.304688-63.488281 63.5-7.171875-7.171876-13.996094-14v-.007812l63.484375-63.488281zm0 0"/><path d="m403.433594 446.253906-42.328125 42.332032-21.160157-21.164063 42.316407-42.328125c5.847656-5.847656 15.324219-5.847656 21.171875 0 5.835937 5.84375 5.835937 15.3125 0 21.160156zm0 0"/></g><path d="m485.015625 27.378906c-34.976563-34.980468-91.929687-35.019531-126.957031-.082031l-35.476563 35.386719 127.089844 127.097656 35.34375-35.347656c35.027344-35.027344 35.027344-92.023438 0-127.054688zm0 0" fill="#dd5c60"/><path d="m485.019531 154.433594-35.347656 35.347656-63.476563-63.488281 98.863282-98.863281h.011718c34.96875 35.027343 34.949219 91.996093-.050781 127.003906zm0 0" fill="#d8333c"/><path d="m322.699219 62.582031-63.148438 62.992188 127.164063 127.171875 63.066406-63.074219zm0 0" fill="#eebb2c"/><path d="m386.304688 126.183594-.109376.109375-3.992187 4-58.976563 58.96875 63.488282 63.488281 58.96875-58.976562 3.988281-3.992188.109375-.109375zm0 0" fill="#e79b34"/></svg>