<svg height="118.98pt" viewBox="0 0 512 512" width="118.98pt" xmlns="http://www.w3.org/2000/svg"><path d="m457.007812 512h-402.015624c-30.320313 0-54.992188-24.671875-54.992188-55v-402c0-30.328125 24.671875-55 54.992188-55h402.015624c30.320313 0 54.992188 24.671875 54.992188 55v402c0 30.328125-24.671875 55-54.992188 55zm0 0" fill="#b6d2e0"/><path d="m457.011719 0h-201.011719v512h201.011719c30.316406 0 54.988281-24.671875 54.988281-55v-402c0-30.328125-24.671875-55-54.988281-55zm0 0" fill="#aac3ce"/><path d="m54.992188 482c-13.78125 0-24.992188-11.214844-24.992188-25v-402c0-13.785156 11.210938-25 24.992188-25h402.015624c13.78125 0 24.992188 11.214844 24.992188 25v402c0 13.785156-11.210938 25-24.992188 25zm0 0" fill="#d6f3fe"/><path d="m482 55v402c0 13.789062-11.210938 25-24.988281 25h-201.011719v-452h201.011719c13.777343 0 24.988281 11.210938 24.988281 25zm0 0" fill="#bdecfc"/><path d="m512 55c0-30.328125-24.671875-55-54.992188-55h-402.015624c-30.320313 0-54.992188 24.671875-54.992188 55v81h512zm0 0" fill="#b6d2e0"/><path d="m512 55v81h-256v-136h201.011719c30.316406 0 54.988281 24.671875 54.988281 55zm0 0" fill="#aac3ce"/><g fill="#bdecfc"><path d="m450.976562 76c0 8.285156-6.714843 15-15 15-8.285156 0-15-6.714844-15-15s6.714844-15 15-15c8.285157 0 15 6.714844 15 15zm0 0"/><path d="m390.984375 76c0 8.285156-6.714844 15-15 15s-15-6.714844-15-15 6.714844-15 15-15 15 6.714844 15 15zm0 0"/><path d="m330.992188 76c0 8.285156-6.714844 15-15 15-8.285157 0-15-6.714844-15-15s6.714843-15 15-15c8.285156 0 15 6.714844 15 15zm0 0"/></g><path d="m260.460938 181.183594c-2.660157-.3125-5.328126-.3125-7.992188-.011719-88.03125 2.242187-146.707031 84.546875-127.976562 164.828125h-.132813c2.390625 10.519531 6.019531 20.570312 10.71875 30h.214844c49.824219 100.066406 191.621093 99.945312 241.453125 0h.175781c4.699219-9.429688 8.328125-19.480469 10.71875-30h-.082031c19.234375-82.449219-42.707032-162.101562-127.097656-164.816406zm60.007812 104.816406h36.164062c5.820313 19.507812 5.832032 40.464844-.003906 60h-36.160156c2.039062-19.761719 2.042969-40.203125 0-60zm21.652344-30h-26.527344c-2.867188-12.558594-6.496094-23.503906-10.695312-32.878906 14.851562 7.851562 27.628906 19.160156 37.222656 32.878906zm-108.378906 138.984375c-2.464844-5.800781-4.609376-12.179687-6.441407-18.984375h57.398438c-1.832031 6.804688-3.976563 13.183594-6.441407 18.984375-6.714843 15.804687-15.453124 26.015625-22.257812 26.015625s-15.542969-10.210938-22.257812-26.015625zm56.558593-48.984375h-68.605469c-2.261718-19.613281-2.261718-40.371094 0-60h68.605469c2.265625 19.613281 2.265625 40.371094 0 60zm-12.042969-108.984375c2.464844 5.800781 4.609376 12.179687 6.441407 18.984375h-57.398438c1.832031-6.804688 3.976563-13.183594 6.441407-18.984375 6.714843-15.804687 15.453124-26.015625 22.257812-26.015625s15.542969 10.210938 22.257812 26.015625zm-70.96875-13.996094c-4.320312 9.441407-8.019531 20.433594-10.882812 32.980469h-26.519531c9.628906-13.769531 22.464843-25.121094 37.402343-32.980469zm-51.917968 62.980469h36.160156c-2.039062 19.761719-2.042969 40.203125 0 60h-36.160156c-5.824219-19.511719-5.835938-40.460938 0-60zm14.515625 90h26.519531c2.859375 12.53125 6.5 23.492188 10.726562 32.894531-14.867187-7.851562-27.652343-19.171875-37.246093-32.894531zm134.96875 32.902344c4.234375-9.40625 7.878906-20.375 10.738281-32.902344h26.523438c-9.597657 13.726562-22.386719 25.046875-37.261719 32.902344zm0 0" fill="#66a9df"/><path d="m256.039062 180.949219v30.050781c6.800782.039062 15.511719 10.238281 22.222657 26.011719 2.457031 5.808593 4.609375 12.179687 6.4375 18.988281h-28.660157v30h34.261719c2.269531 19.609375 2.269531 40.371094 0 60h-34.261719v30h28.660157c-1.828125 6.808594-3.980469 13.179688-6.4375 18.988281-6.710938 15.773438-15.421875 25.972657-22.222657 26.011719v30.011719c47.902344-.023438 95.800782-25.042969 120.710938-75.011719h.171875c4.699219-9.429688 8.328125-19.480469 10.71875-30h-.082031c20.039062-85.910156-48.171875-166.175781-131.519532-165.050781zm86.082032 75.050781h-26.53125c-2.859375-12.558594-6.488282-23.511719-10.691406-32.878906 14.851562 7.847656 27.632812 19.160156 37.222656 32.878906zm-37.261719 152.898438c4.230469-9.398438 7.878906-20.367188 10.730469-32.898438h26.53125c-9.601563 13.730469-22.390625 25.050781-37.261719 32.898438zm51.769531-62.898438h-36.160156c2.042969-19.761719 2.042969-40.210938 0-60h36.160156c5.820313 19.511719 5.832032 40.460938 0 60zm0 0" fill="#4f84cf"/></svg>